<svg xmlns="http://www.w3.org/2000/svg" viewBox="0 0 800 600" preserveAspectRatio="xMidYMid slice">
<defs>
<linearGradient id="sky" x1="0" y1="0" x2="0" y2="1"><stop offset="0" stop-color="#3a1f52"/><stop offset="0.55" stop-color="#9a4a6e"/><stop offset="1" stop-color="#f4a85e"/></linearGradient>
<radialGradient id="sun" cx="0" cy="0" r="1" gradientUnits="userSpaceOnUse" gradientTransform="translate(625.3675550036132 207.9885085336864) scale(163.96580507420003)"><stop offset="0" stop-color="#ffd089" stop-opacity="0.95"/><stop offset="0.3" stop-color="#ffd089" stop-opacity="0.35"/><stop offset="1" stop-color="#ffd089" stop-opacity="0"/></radialGradient>
<linearGradient id="snow" x1="0" y1="0" x2="0" y2="1"><stop offset="0" stop-color="#f2f6ff"/><stop offset="1" stop-color="#f2f6ff" stop-opacity="0"/></linearGradient>
<linearGradient id="waterG" x1="0" y1="0" x2="0" y2="1"><stop offset="0" stop-color="#f4a85e" stop-opacity="0.55"/><stop offset="1" stop-color="#3a1f52" stop-opacity="0.92"/></linearGradient>
<linearGradient id="steam" x1="0" y1="0" x2="0" y2="1"><stop offset="0" stop-color="#eef4fb" stop-opacity="0"/><stop offset="1" stop-color="#eef4fb" stop-opacity="0.8"/></linearGradient>
<radialGradient id="vig" cx="0.5" cy="0.42" r="0.78"><stop offset="0.58" stop-color="#000" stop-opacity="0"/><stop offset="1" stop-color="#000" stop-opacity="0.52"/></radialGradient>
</defs>
<rect width="800" height="600" fill="url(#sky)"/>
<rect width="800" height="600" fill="url(#sun)"/><circle cx="625.3675550036132" cy="207.9885085336864" r="54.65526835806668" fill="#ffd089" opacity="0.92"/>
<polygon points="0,600 0,300 0,287.6180604319088 108.85988606326282,257.5082115936093 217.71977212652564,266.63758719479665 326.57965818978846,269.03298338735476 435.4395442530513,286.1060130461119 544.2994303163141,263.76400577276945 653.1593163795769,278.2669470878318 762.0192024428397,276.7270775977522 800,300 800,600" fill="#5a2f55"/><polygon points="0,600 0,372 0,344.81906693591736 81.0297364317812,353.4713692951482 162.0594728635624,374.06268428149633 243.0892092953436,359.2570854402147 324.1189457271248,360.7112029562704 405.148682158906,343.3181962859817 486.1784185906872,350.79506237525493 567.2081550224684,370.88286043610424 648.2378914542496,374.1433492375072 729.2676278860308,352.4143301965669 800,372 800,600" fill="#3f2040"/><polygon points="0,600 0,444 0,429.27280685212463 83.46897369995713,438.46774534508586 166.93794739991426,429.4607553659007 250.4069210998714,453.5400206875056 333.87589479982853,446.07872636057436 417.34486849978566,435.8590215528384 500.8138421997428,452.5462899720296 584.2828158996999,454.2263699192554 667.7517895996571,444.1587346997112 751.2207632996142,440.926290336065 800,444 800,600" fill="#28162e"/><rect x="0" y="432" width="800" height="168.00000000000003" fill="url(#waterG)"/><rect x="0" y="432" width="800" height="2" fill="#fff" opacity="0.28"/><g transform="translate(407.56903089582926,420) scale(3.1740507636452095)"><path d="M-46,0 -42,-7 -20,-9 8,-9 28,-7 42,-8 46,-3 30,-2 24,-7 13,-2 5,-7 -6,-2 -15,-7 -26,-2 -36,-6 Z" fill="#080d0a" stroke="#080d0a" stroke-width="1.2" stroke-linejoin="round"/></g><line x1="672.3118232563138" y1="564" x2="672.1083190627396" y2="496.9690339304507" stroke="#0c1018" stroke-width="2.2" opacity="0.5687721353955567"/><line x1="264.8401642218232" y1="564" x2="264.66447848267853" y2="512.2504295310937" stroke="#0c1018" stroke-width="2.2" opacity="0.7910934537416324"/><line x1="119.38862148672342" y1="564" x2="120.06626776233315" y2="509.36361859505996" stroke="#0c1018" stroke-width="2.2" opacity="0.6668347257422284"/><line x1="384.72035992890596" y1="564" x2="384.6838096845895" y2="515.3265025038272" stroke="#0c1018" stroke-width="2.2" opacity="0.7244924143655226"/><line x1="565.5952425673604" y1="564" x2="568.4061807580292" y2="535.8177667101845" stroke="#0c1018" stroke-width="2.2" opacity="0.5243546273326501"/><line x1="730.5154116824269" y1="564" x2="726.9265966098756" y2="491.1532273897901" stroke="#0c1018" stroke-width="2.2" opacity="0.8975081192096696"/><line x1="374.62292406708" y1="564" x2="377.655842743814" y2="534.411363015417" stroke="#0c1018" stroke-width="2.2" opacity="0.4481327212182805"/><line x1="603.256075643003" y1="564" x2="605.1061505991966" y2="502.37813370255753" stroke="#0c1018" stroke-width="2.2" opacity="0.582998706586659"/><line x1="140.73410090059042" y1="564" x2="144.40413748845458" y2="536.7486583241262" stroke="#0c1018" stroke-width="2.2" opacity="0.7959276363020763"/><line x1="578.5676715895534" y1="564" x2="574.8685147166252" y2="529.1828457354568" stroke="#0c1018" stroke-width="2.2" opacity="0.5288873924640939"/><line x1="121.42631709575653" y1="564" x2="124.01801952905953" y2="503.011029698886" stroke="#0c1018" stroke-width="2.2" opacity="0.7557960445759818"/><line x1="493.13884545117617" y1="564" x2="495.89571201615036" y2="518.403441017028" stroke="#0c1018" stroke-width="2.2" opacity="0.5302094759885222"/><line x1="632.6500231400132" y1="564" x2="634.5962872840464" y2="507.45985028008" stroke="#0c1018" stroke-width="2.2" opacity="0.5837371457368136"/><line x1="64.58629444241524" y1="564" x2="66.832613222301" y2="528.1828522533178" stroke="#0c1018" stroke-width="2.2" opacity="0.7815058333566413"/><line x1="587.6353979110718" y1="564" x2="585.0590567607433" y2="530.3351854039356" stroke="#0c1018" stroke-width="2.2" opacity="0.7265906692249701"/><line x1="722.3485885187984" y1="564" x2="725.7571265865117" y2="522.5936105921865" stroke="#0c1018" stroke-width="2.2" opacity="0.898730474151671"/><line x1="423.2184739783406" y1="564" x2="422.4470526147634" y2="520.2139473906718" stroke="#0c1018" stroke-width="2.2" opacity="0.6097345354268328"/><line x1="114.54140711575747" y1="564" x2="111.54654801636934" y2="508.6349742873572" stroke="#0c1018" stroke-width="2.2" opacity="0.41587791298516097"/><line x1="607.705644890666" y1="564" x2="609.7975307200104" y2="539.6799589730799" stroke="#0c1018" stroke-width="2.2" opacity="0.7993428146932274"/><line x1="285.2976629510522" y1="564" x2="286.5977587867528" y2="508.18232620693743" stroke="#0c1018" stroke-width="2.2" opacity="0.6637645965442062"/><line x1="66.77363533526659" y1="564" x2="64.9214129075408" y2="510.74235724424943" stroke="#0c1018" stroke-width="2.2" opacity="0.8365608399966732"/><line x1="317.0184062793851" y1="564" x2="320.2335298191756" y2="538.0567397298291" stroke="#0c1018" stroke-width="2.2" opacity="0.5199955170741305"/><line x1="268.128209002316" y1="564" x2="265.1963250618428" y2="530.8459257311188" stroke="#0c1018" stroke-width="2.2" opacity="0.89923682177905"/><line x1="535.7982816174626" y1="564" x2="532.480357259512" y2="490.7563469861634" stroke="#0c1018" stroke-width="2.2" opacity="0.8208548736060038"/><line x1="762.7774182707071" y1="564" x2="764.9009143766016" y2="522.7447382174432" stroke="#0c1018" stroke-width="2.2" opacity="0.4798096269136295"/><line x1="774.6099576354027" y1="564" x2="778.1559060588479" y2="497.7210212643258" stroke="#0c1018" stroke-width="2.2" opacity="0.5699987326283008"/><line x1="240.46318605542183" y1="564" x2="237.8099705092609" y2="508.8496458623558" stroke="#0c1018" stroke-width="2.2" opacity="0.42104797924403103"/><line x1="254.32316716760397" y1="564" x2="253.02759056910872" y2="513.2553230570629" stroke="#0c1018" stroke-width="2.2" opacity="0.8756606571609155"/><line x1="325.34177359193563" y1="564" x2="323.12092248536646" y2="520.4034160622396" stroke="#0c1018" stroke-width="2.2" opacity="0.5557508074911311"/><line x1="254.13103699684143" y1="564" x2="252.11619549803436" y2="511.7295387359336" stroke="#0c1018" stroke-width="2.2" opacity="0.46892932613845917"/><line x1="483.4664734080434" y1="564" x2="482.2795315179974" y2="528.4143645134754" stroke="#0c1018" stroke-width="2.2" opacity="0.4637320964597166"/><line x1="93.06976962834597" y1="564" x2="90.88447239436209" y2="495.33880992233753" stroke="#0c1018" stroke-width="2.2" opacity="0.7466776958666742"/><line x1="491.03599824011326" y1="564" x2="489.7401058059186" y2="492.7713068877347" stroke="#0c1018" stroke-width="2.2" opacity="0.4298016582382843"/><line x1="189.89745993167162" y1="564" x2="192.7129292190075" y2="517.698062915355" stroke="#0c1018" stroke-width="2.2" opacity="0.4080918068997562"/><line x1="440.4675468802452" y1="564" x2="439.7861334569752" y2="537.2912883772515" stroke="#0c1018" stroke-width="2.2" opacity="0.837168134143576"/><line x1="212.57633715867996" y1="564" x2="210.13114265538752" y2="535.0165951857343" stroke="#0c1018" stroke-width="2.2" opacity="0.4910886529600248"/><line x1="33.099111169576645" y1="564" x2="34.94729910045862" y2="539.8039818746038" stroke="#0c1018" stroke-width="2.2" opacity="0.47004784559831025"/><line x1="494.2456925287843" y1="564" x2="493.99820839241147" y2="494.9639781191945" stroke="#0c1018" stroke-width="2.2" opacity="0.4289039637427777"/><line x1="163.31665329635143" y1="564" x2="160.6540852766484" y2="511.7272374886088" stroke="#0c1018" stroke-width="2.2" opacity="0.43993892972357573"/><line x1="68.3428268879652" y1="564" x2="71.06057662889361" y2="490.92737301485613" stroke="#0c1018" stroke-width="2.2" opacity="0.6243779528653249"/><line x1="42.74991489946842" y1="564" x2="42.02091068401933" y2="540.0440958030522" stroke="#0c1018" stroke-width="2.2" opacity="0.6543142611393705"/><line x1="1.5799574553966522" y1="564" x2="3.753758804872632" y2="492.1627156655304" stroke="#0c1018" stroke-width="2.2" opacity="0.4817678577732295"/><line x1="105.51931448280811" y1="564" x2="108.98333580419421" y2="525.8330139503814" stroke="#0c1018" stroke-width="2.2" opacity="0.5834122034488246"/><line x1="313.5601058602333" y1="564" x2="310.54414409957826" y2="489.150682201609" stroke="#0c1018" stroke-width="2.2" opacity="0.70434668448288"/><line x1="369.80975195765495" y1="564" x2="371.7018222976476" y2="510.16919586155564" stroke="#0c1018" stroke-width="2.2" opacity="0.8718125390354544"/><line x1="662.2786661610007" y1="564" x2="660.1959471274167" y2="522.109685536474" stroke="#0c1018" stroke-width="2.2" opacity="0.8398629625793547"/><line x1="132.1555644273758" y1="564" x2="135.30940191075206" y2="498.3012189446017" stroke="#0c1018" stroke-width="2.2" opacity="0.7218477632617578"/><line x1="586.7671383544803" y1="564" x2="585.8153353724629" y2="534.8974632755853" stroke="#0c1018" stroke-width="2.2" opacity="0.6783164157299325"/><line x1="508.14575981348753" y1="564" x2="504.6302451007068" y2="528.1015366739593" stroke="#0c1018" stroke-width="2.2" opacity="0.5082674463978037"/><line x1="385.4319890961051" y1="564" x2="384.0440634097904" y2="489.74390133609995" stroke="#0c1018" stroke-width="2.2" opacity="0.5589415734633804"/><line x1="62.58968785405159" y1="564" x2="64.93192791379988" y2="518.1032900474966" stroke="#0c1018" stroke-width="2.2" opacity="0.7649802478030324"/><line x1="500.31096562743187" y1="564" x2="501.77890818193555" y2="539.4878834835254" stroke="#0c1018" stroke-width="2.2" opacity="0.5112187785329297"/><line x1="765.0416251271963" y1="564" x2="764.6431734766811" y2="512.7067676060833" stroke="#0c1018" stroke-width="2.2" opacity="0.7004956922959537"/><line x1="212.09689360111952" y1="564" x2="213.21966385282576" y2="529.0471797920763" stroke="#0c1018" stroke-width="2.2" opacity="0.524834155663848"/><line x1="735.9401034191251" y1="564" x2="734.9328256212175" y2="531.7374764424749" stroke="#0c1018" stroke-width="2.2" opacity="0.7893951533827931"/><line x1="6.79902620613575" y1="564" x2="7.099723292514682" y2="540.6562270130962" stroke="#0c1018" stroke-width="2.2" opacity="0.4299531323835254"/><line x1="248.97026643157005" y1="564" x2="252.43005353026092" y2="540.9538428550586" stroke="#0c1018" stroke-width="2.2" opacity="0.8247110810829327"/><line x1="656.1170410364866" y1="564" x2="658.1298299375921" y2="495.7568978401832" stroke="#0c1018" stroke-width="2.2" opacity="0.8877179231261835"/><line x1="595.5550847575068" y1="564" x2="594.9377238061279" y2="513.5654465006664" stroke="#0c1018" stroke-width="2.2" opacity="0.7347715169657022"/><line x1="60.94863452017307" y1="564" x2="60.518317092210054" y2="513.9482206767425" stroke="#0c1018" stroke-width="2.2" opacity="0.7664328632876277"/><line x1="614.1485318541527" y1="564" x2="615.8027625028044" y2="490.83527818648145" stroke="#0c1018" stroke-width="2.2" opacity="0.5844664831878618"/><line x1="314.39259368926287" y1="564" x2="318.3504688348621" y2="496.6724028196186" stroke="#0c1018" stroke-width="2.2" opacity="0.7241595092695207"/><line x1="508.103259652853" y1="564" x2="509.03184621967375" y2="516.8979098801501" stroke="#0c1018" stroke-width="2.2" opacity="0.4012788969324902"/><line x1="100.25166608393192" y1="564" x2="100.74603727832437" y2="490.59236873406917" stroke="#0c1018" stroke-width="2.2" opacity="0.40199855596292766"/><line x1="100.20153783261776" y1="564" x2="99.01935074292123" y2="536.3649432207458" stroke="#0c1018" stroke-width="2.2" opacity="0.5796682907734066"/><line x1="382.76198133826256" y1="564" x2="383.90843680873513" y2="506.0474569653161" stroke="#0c1018" stroke-width="2.2" opacity="0.8590160322841257"/><line x1="252.0459884777665" y1="564" x2="253.97385396063328" y2="508.6045761043206" stroke="#0c1018" stroke-width="2.2" opacity="0.5515992503846064"/><line x1="158.24461840093136" y1="564" x2="157.2452801335603" y2="509.81047243764624" stroke="#0c1018" stroke-width="2.2" opacity="0.43462649788707497"/><line x1="85.22345814853907" y1="564" x2="87.77157169766724" y2="495.8857903215103" stroke="#0c1018" stroke-width="2.2" opacity="0.6362490211380646"/><line x1="374.2566807195544" y1="564" x2="374.85726127400994" y2="503.74086632812396" stroke="#0c1018" stroke-width="2.2" opacity="0.8555527803022415"/>
<rect width="800" height="600" fill="url(#vig)"/></svg>