<svg xmlns="http://www.w3.org/2000/svg" viewBox="0 0 800 600" preserveAspectRatio="xMidYMid slice">
<defs>
<linearGradient id="sky" x1="0" y1="0" x2="0" y2="1"><stop offset="0" stop-color="#22335c"/><stop offset="0.55" stop-color="#6277a0"/><stop offset="1" stop-color="#f3d199"/></linearGradient>
<radialGradient id="sun" cx="0" cy="0" r="1" gradientUnits="userSpaceOnUse" gradientTransform="translate(354.9065170949325 217.24157193582505) scale(182.46828439459205)"><stop offset="0" stop-color="#fbe6b0" stop-opacity="0.95"/><stop offset="0.3" stop-color="#fbe6b0" stop-opacity="0.35"/><stop offset="1" stop-color="#fbe6b0" stop-opacity="0"/></radialGradient>
<linearGradient id="snow" x1="0" y1="0" x2="0" y2="1"><stop offset="0" stop-color="#f2f6ff"/><stop offset="1" stop-color="#f2f6ff" stop-opacity="0"/></linearGradient>
<linearGradient id="waterG" x1="0" y1="0" x2="0" y2="1"><stop offset="0" stop-color="#f3d199" stop-opacity="0.55"/><stop offset="1" stop-color="#22335c" stop-opacity="0.92"/></linearGradient>
<linearGradient id="steam" x1="0" y1="0" x2="0" y2="1"><stop offset="0" stop-color="#eef4fb" stop-opacity="0"/><stop offset="1" stop-color="#eef4fb" stop-opacity="0.8"/></linearGradient>
<radialGradient id="vig" cx="0.5" cy="0.42" r="0.78"><stop offset="0.58" stop-color="#000" stop-opacity="0"/><stop offset="1" stop-color="#000" stop-opacity="0.52"/></radialGradient>
</defs>
<rect width="800" height="600" fill="url(#sky)"/>
<rect width="800" height="600" fill="url(#sun)"/><circle cx="354.9065170949325" cy="217.24157193582505" r="60.822761464864016" fill="#fbe6b0" opacity="0.92"/>
<polygon points="0,600 0,300 0,265.1410239660181 83.50193935027346,293.7965986132622 167.00387870054692,270.4146204334684 250.50581805082038,278.5651765479706 334.00775740109384,279.0696094916202 417.5096967513673,265.66243596561253 501.01163610164076,274.96146957669407 584.5135754519142,263.810326540377 668.0155148021877,296.2183861224912 751.5174541524611,292.3017821018584 800,300 800,600" fill="#4a6a4f"/><polygon points="0,600 0,372 0,364.3682643955108 96.61187674524263,342.44528514822014 193.22375349048525,354.8395878013689 289.8356302357279,355.4431372671388 386.4475069809705,361.92804888193496 483.0593837262131,376.83816268178634 579.6712604714558,350.267305242829 676.2831372166984,376.3401745632291 772.895013961941,345.75492184166797 800,372 800,600" fill="#36513a"/><polygon points="0,600 0,444 0,440.2013205960393 65.49357729731128,447.9843067256734 130.98715459462255,444.5468170614913 196.48073189193383,440.2351355114952 261.9743091892451,432.2528528412804 327.4678864865564,444.5209385929629 392.96146378386766,452.23405428789556 458.45504108117893,448.54451516643167 523.9486183784902,449.610947904177 589.4421956758015,455.2111602546647 654.9357729731128,447.4945302037522 720.429350270424,439.40051641501486 785.9229275677353,435.46270445548 800,444 800,600" fill="#27402c"/><g transform="translate(404.20385546982294,480) scale(3.306094463262707)"><path d="M-17,0 -17,-8 -12,-13 -2,-14 9,-12 13,-15 16,-11 12,-8 12,0 8,0 8,-8 -9,-8 -13,0 Z" fill="#080d0a" stroke="#080d0a" stroke-width="1.2" stroke-linejoin="round"/></g><rect x="0" y="491.99999999999994" width="800" height="108" fill="#16210f" opacity="0.5"/><line x1="610.666785389185" y1="567.2998352665454" x2="609.0337788043544" y2="540.3302533859387" stroke="#0a1206" stroke-width="2" opacity="0.5"/><line x1="100.9540069848299" y1="572.1416419325396" x2="102.56953194970265" y2="557.8022192828357" stroke="#0a1206" stroke-width="2" opacity="0.5"/><line x1="755.6144427508116" y1="570.6549534145743" x2="757.809646114707" y2="546.3273154324852" stroke="#0a1206" stroke-width="2" opacity="0.5"/><line x1="54.49737720191479" y1="563.6421442525461" x2="54.98492723098025" y2="542.1324044759385" stroke="#0a1206" stroke-width="2" opacity="0.5"/><line x1="116.68040510267019" y1="521.8584299208596" x2="115.34404189838096" y2="505.0874058622867" stroke="#0a1206" stroke-width="2" opacity="0.5"/><line x1="51.203810423612595" y1="506.18456458020955" x2="51.967507826630026" y2="485.32358083175495" stroke="#0a1206" stroke-width="2" opacity="0.5"/><line x1="240.23293275386095" y1="550.4080571103841" x2="238.4139360920526" y2="534.4806985538453" stroke="#0a1206" stroke-width="2" opacity="0.5"/><line x1="136.6738172248006" y1="511.77711543347687" x2="133.98715407354757" y2="501.1149224694818" stroke="#0a1206" stroke-width="2" opacity="0.5"/><line x1="33.68075378239155" y1="543.1497582010925" x2="35.36946243746206" y2="533.2136965454556" stroke="#0a1206" stroke-width="2" opacity="0.5"/><line x1="328.8849411532283" y1="533.3320321859792" x2="328.58009908534586" y2="516.3029817617498" stroke="#0a1206" stroke-width="2" opacity="0.5"/><line x1="229.33523077517748" y1="512.9955709576607" x2="227.89164863619953" y2="494.8818517830223" stroke="#0a1206" stroke-width="2" opacity="0.5"/><line x1="536.2639995291829" y1="516.3205203590915" x2="533.8089096974581" y2="491.4817061573267" stroke="#0a1206" stroke-width="2" opacity="0.5"/><line x1="748.7990330904722" y1="529.4405382899567" x2="751.1154245724902" y2="502.5288072405383" stroke="#0a1206" stroke-width="2" opacity="0.5"/><line x1="524.4009351357818" y1="577.0743335941806" x2="521.7702776431106" y2="563.4643473797478" stroke="#0a1206" stroke-width="2" opacity="0.5"/><line x1="228.25596649199724" y1="562.4365215422586" x2="228.54292364325374" y2="539.9547681994736" stroke="#0a1206" stroke-width="2" opacity="0.5"/><line x1="257.1231259033084" y1="534.2334195608273" x2="258.80963045172393" y2="508.2459607059136" stroke="#0a1206" stroke-width="2" opacity="0.5"/><line x1="17.862407118082047" y1="572.018512015231" x2="16.547054011840373" y2="554.7391117494553" stroke="#0a1206" stroke-width="2" opacity="0.5"/><line x1="352.78404001146555" y1="529.4553083796054" x2="350.28544475650415" y2="507.3188243871555" stroke="#0a1206" stroke-width="2" opacity="0.5"/><line x1="428.9633706212044" y1="530.2760224789381" x2="430.0243481430225" y2="512.4418672551401" stroke="#0a1206" stroke-width="2" opacity="0.5"/><line x1="124.93988145142794" y1="561.7113152509555" x2="124.43775830045342" y2="540.4392022490501" stroke="#0a1206" stroke-width="2" opacity="0.5"/><line x1="417.9118547588587" y1="509.60647833533585" x2="418.7239569905214" y2="492.60995736485347" stroke="#0a1206" stroke-width="2" opacity="0.5"/><line x1="350.1188360154629" y1="570.9760326286778" x2="348.82242887839675" y2="557.4520095703192" stroke="#0a1206" stroke-width="2" opacity="0.5"/><line x1="666.5881156921387" y1="553.614031272009" x2="665.5677512362599" y2="537.0359434783459" stroke="#0a1206" stroke-width="2" opacity="0.5"/><line x1="556.4228987321258" y1="562.8952221823856" x2="557.6693401876837" y2="552.8129717325792" stroke="#0a1206" stroke-width="2" opacity="0.5"/><line x1="590.9747773781419" y1="523.6078470339999" x2="590.7910720878281" y2="513.4867831212468" stroke="#0a1206" stroke-width="2" opacity="0.5"/><line x1="182.86009933799505" y1="505.28047320619226" x2="180.08370519895107" y2="481.35276418877766" stroke="#0a1206" stroke-width="2" opacity="0.5"/><line x1="547.9250505566597" y1="560.0791547577828" x2="547.7413482936099" y2="533.1473588319495" stroke="#0a1206" stroke-width="2" opacity="0.5"/><line x1="544.2984098568559" y1="519.5173582434654" x2="546.4269817159511" y2="509.23443119740114" stroke="#0a1206" stroke-width="2" opacity="0.5"/><line x1="624.6115880087018" y1="554.5106422277167" x2="627.0200748806819" y2="543.4624140746891" stroke="#0a1206" stroke-width="2" opacity="0.5"/><line x1="135.97576431930065" y1="565.6537243304774" x2="134.84243608126417" y2="546.9871717449278" stroke="#0a1206" stroke-width="2" opacity="0.5"/><line x1="22.857394069433212" y1="542.683248102665" x2="22.715069860685617" y2="518.6144005805254" stroke="#0a1206" stroke-width="2" opacity="0.5"/><line x1="551.7186500132084" y1="520.3807597467676" x2="551.3219834053889" y2="507.35503379954025" stroke="#0a1206" stroke-width="2" opacity="0.5"/><line x1="111.14505492150784" y1="523.1268374864012" x2="110.02613697433844" y2="501.3909567282535" stroke="#0a1206" stroke-width="2" opacity="0.5"/><line x1="497.84572925418615" y1="541.9961309283972" x2="498.07493561925367" y2="528.8430788554251" stroke="#0a1206" stroke-width="2" opacity="0.5"/><line x1="74.72221497446299" y1="522.81703031715" x2="71.82140614837408" y2="500.8912033033557" stroke="#0a1206" stroke-width="2" opacity="0.5"/><line x1="169.97631806880236" y1="537.665135320276" x2="170.88112809183076" y2="517.97448740853" stroke="#0a1206" stroke-width="2" opacity="0.5"/><line x1="224.1582453250885" y1="557.5624534673989" x2="223.07218030188233" y2="544.1977953622118" stroke="#0a1206" stroke-width="2" opacity="0.5"/><line x1="137.33252715319395" y1="542.132248009555" x2="139.3684586309828" y2="523.0861709159799" stroke="#0a1206" stroke-width="2" opacity="0.5"/><line x1="275.0860970467329" y1="556.7688009124249" x2="273.49981964332983" y2="545.3980402769521" stroke="#0a1206" stroke-width="2" opacity="0.5"/><line x1="485.9488554298878" y1="551.1499369125813" x2="486.4351762039587" y2="536.9492375473492" stroke="#0a1206" stroke-width="2" opacity="0.5"/><line x1="283.06203708052635" y1="551.2577257705852" x2="283.6559667196125" y2="524.8913502297364" stroke="#0a1206" stroke-width="2" opacity="0.5"/><line x1="147.39003349095583" y1="504.41667505167425" x2="145.65162912290543" y2="489.3885400383733" stroke="#0a1206" stroke-width="2" opacity="0.5"/><line x1="757.5543515384197" y1="552.1957976231351" x2="758.0284256017767" y2="539.2010929360986" stroke="#0a1206" stroke-width="2" opacity="0.5"/><line x1="426.46740060299635" y1="512.0221972838044" x2="424.45678298547864" y2="489.66203324496746" stroke="#0a1206" stroke-width="2" opacity="0.5"/><line x1="121.11690491437912" y1="574.4743702244014" x2="121.9364758701995" y2="565.125740820542" stroke="#0a1206" stroke-width="2" opacity="0.5"/><line x1="617.5804451107979" y1="553.9138841405511" x2="618.6933214450255" y2="534.6286728414707" stroke="#0a1206" stroke-width="2" opacity="0.5"/><line x1="228.6979705095291" y1="526.0389081565663" x2="230.8723651296459" y2="499.9967900100164" stroke="#0a1206" stroke-width="2" opacity="0.5"/><line x1="25.91406237334013" y1="560.2689318777993" x2="28.58476350316778" y2="548.0319549632259" stroke="#0a1206" stroke-width="2" opacity="0.5"/><line x1="150.44474247843027" y1="529.3393045915291" x2="153.4079489200376" y2="508.929631347768" stroke="#0a1206" stroke-width="2" opacity="0.5"/><line x1="638.6229172348976" y1="512.4238256402314" x2="637.1343588442542" y2="494.04314381768927" stroke="#0a1206" stroke-width="2" opacity="0.5"/><line x1="339.2781052738428" y1="543.4936101157218" x2="337.78565370710567" y2="520.5100539643317" stroke="#0a1206" stroke-width="2" opacity="0.5"/><line x1="185.77697593718767" y1="539.1910163462162" x2="187.34472189145163" y2="520.4806494992226" stroke="#0a1206" stroke-width="2" opacity="0.5"/><line x1="586.4785756915808" y1="510.09929858800024" x2="583.5539480559528" y2="496.6701001888141" stroke="#0a1206" stroke-width="2" opacity="0.5"/><line x1="40.90473223477602" y1="517.5570018533617" x2="42.10701799066737" y2="499.10558637371287" stroke="#0a1206" stroke-width="2" opacity="0.5"/><line x1="510.3127555921674" y1="586.6375227095559" x2="507.5755912507884" y2="572.7113685803488" stroke="#0a1206" stroke-width="2" opacity="0.5"/><line x1="630.7315070182085" y1="558.1092689596117" x2="627.8081515529193" y2="538.4946232633665" stroke="#0a1206" stroke-width="2" opacity="0.5"/><line x1="99.73360020667315" y1="526.6872415412217" x2="101.65672732470557" y2="501.84794028801844" stroke="#0a1206" stroke-width="2" opacity="0.5"/><line x1="466.783194988966" y1="579.2849766276777" x2="464.14960634335876" y2="566.5661159567535" stroke="#0a1206" stroke-width="2" opacity="0.5"/><line x1="718.014189787209" y1="530.5156165938824" x2="716.9846704029478" y2="509.61757772555575" stroke="#0a1206" stroke-width="2" opacity="0.5"/><line x1="108.92915427684784" y1="519.0134171275422" x2="108.95508317323402" y2="507.3563241669908" stroke="#0a1206" stroke-width="2" opacity="0.5"/><line x1="789.1418408602476" y1="571.091989595443" x2="786.2736567929387" y2="561.0010887491517" stroke="#0a1206" stroke-width="2" opacity="0.5"/><line x1="347.8504566475749" y1="528.4693425893784" x2="348.0837178770453" y2="503.88044301979244" stroke="#0a1206" stroke-width="2" opacity="0.5"/><line x1="151.4608297497034" y1="524.1559897754341" x2="151.79857707954943" y2="502.65567707503214" stroke="#0a1206" stroke-width="2" opacity="0.5"/><line x1="1.8307825550436974" y1="576.8802792280912" x2="-0.6430871556513011" y2="561.5835679415613" stroke="#0a1206" stroke-width="2" opacity="0.5"/><line x1="456.06938637793064" y1="530.4358934741467" x2="456.4484825944528" y2="519.6266093412414" stroke="#0a1206" stroke-width="2" opacity="0.5"/><line x1="183.9492030441761" y1="513.0801727054641" x2="181.63841540087014" y2="502.254053670913" stroke="#0a1206" stroke-width="2" opacity="0.5"/><line x1="298.52362144738436" y1="558.2909739995375" x2="301.4033029922284" y2="543.4909497820772" stroke="#0a1206" stroke-width="2" opacity="0.5"/><line x1="101.31084471940994" y1="583.4651547884569" x2="102.97505924059078" y2="563.138214814011" stroke="#0a1206" stroke-width="2" opacity="0.5"/><line x1="26.512569189071655" y1="576.4872391009703" x2="27.019000277854502" y2="558.3400239385664" stroke="#0a1206" stroke-width="2" opacity="0.5"/><line x1="124.4147464632988" y1="562.2486644871533" x2="122.78656744677573" y2="537.7366726552136" stroke="#0a1206" stroke-width="2" opacity="0.5"/><line x1="517.4215136095881" y1="557.3664231598377" x2="518.8882088353857" y2="544.7694690898061" stroke="#0a1206" stroke-width="2" opacity="0.5"/><line x1="543.7402695417404" y1="576.3966375952587" x2="543.59214506438" y2="550.1237104176544" stroke="#0a1206" stroke-width="2" opacity="0.5"/><line x1="310.2699464187026" y1="560.3318004794419" x2="311.1375793092884" y2="546.822688001208" stroke="#0a1206" stroke-width="2" opacity="0.5"/><line x1="368.84872652590275" y1="532.0509610008448" x2="369.90847335522994" y2="506.3303583310917" stroke="#0a1206" stroke-width="2" opacity="0.5"/><line x1="0.2948461100459099" y1="584.3480496229604" x2="0.3904691329225898" y2="562.7544101639651" stroke="#0a1206" stroke-width="2" opacity="0.5"/><line x1="768.9261857420206" y1="507.02150103170425" x2="767.3901943359524" y2="483.2265876503661" stroke="#0a1206" stroke-width="2" opacity="0.5"/><line x1="369.62322015315294" y1="553.2518908632919" x2="369.49856877932325" y2="538.9823397207074" stroke="#0a1206" stroke-width="2" opacity="0.5"/><line x1="503.13881412148476" y1="560.1708335643634" x2="502.63090840447694" y2="543.2425559163094" stroke="#0a1206" stroke-width="2" opacity="0.5"/><line x1="35.92619802802801" y1="533.3744867155328" x2="34.23796370206401" y2="517.1170514440164" stroke="#0a1206" stroke-width="2" opacity="0.5"/><line x1="6.0466282069683075" y1="566.6868082210422" x2="8.016749607864767" y2="540.6525902613066" stroke="#0a1206" stroke-width="2" opacity="0.5"/>
<rect width="800" height="600" fill="url(#vig)"/></svg>