<svg xmlns="http://www.w3.org/2000/svg" viewBox="0 0 800 600" preserveAspectRatio="xMidYMid slice">
<defs>
<linearGradient id="sky" x1="0" y1="0" x2="0" y2="1"><stop offset="0" stop-color="#3a1f52"/><stop offset="0.55" stop-color="#9a4a6e"/><stop offset="1" stop-color="#f4a85e"/></linearGradient>
<radialGradient id="sun" cx="0" cy="0" r="1" gradientUnits="userSpaceOnUse" gradientTransform="translate(308.88285868801177 202.02133048698306) scale(167.2216983474791)"><stop offset="0" stop-color="#ffd089" stop-opacity="0.95"/><stop offset="0.3" stop-color="#ffd089" stop-opacity="0.35"/><stop offset="1" stop-color="#ffd089" stop-opacity="0"/></radialGradient>
<linearGradient id="snow" x1="0" y1="0" x2="0" y2="1"><stop offset="0" stop-color="#f2f6ff"/><stop offset="1" stop-color="#f2f6ff" stop-opacity="0"/></linearGradient>
<linearGradient id="waterG" x1="0" y1="0" x2="0" y2="1"><stop offset="0" stop-color="#f4a85e" stop-opacity="0.55"/><stop offset="1" stop-color="#3a1f52" stop-opacity="0.92"/></linearGradient>
<linearGradient id="steam" x1="0" y1="0" x2="0" y2="1"><stop offset="0" stop-color="#eef4fb" stop-opacity="0"/><stop offset="1" stop-color="#eef4fb" stop-opacity="0.8"/></linearGradient>
<radialGradient id="vig" cx="0.5" cy="0.42" r="0.78"><stop offset="0.58" stop-color="#000" stop-opacity="0"/><stop offset="1" stop-color="#000" stop-opacity="0.52"/></radialGradient>
</defs>
<rect width="800" height="600" fill="url(#sky)"/>
<rect width="800" height="600" fill="url(#sun)"/><circle cx="308.88285868801177" cy="202.02133048698306" r="55.74056611582637" fill="#ffd089" opacity="0.92"/>
<polygon points="0,600 0,300 0,256.3758932328783 99.84475713549182,288.1737658586353 199.68951427098364,273.2827622364275 299.53427140647545,273.67529150424525 399.3790285419673,269.5776610788889 499.2237856774591,262.0694453516044 599.0685428129509,292.9566059987992 698.9132999484427,277.86289229569957 798.7580570839345,267.83983481675386 800,300 800,600" fill="#5a2f55"/><polygon points="0,600 0,372 0,356.5773506918922 102.16810548026115,377.84734887233935 204.3362109605223,372.153268848313 306.50431644078344,373.70221901685 408.6724219210446,363.0514763239771 510.84052740130574,363.35001572896726 613.0086328815669,356.04064831277356 715.176738361828,343.87439626292326 800,372 800,600" fill="#3f2040"/><polygon points="0,600 0,444 0,448.795260139741 76.4306913712062,447.8653388982639 152.8613827424124,451.67049031332135 229.29207411361858,445.0446563605219 305.7227654848248,452.21314872894436 382.15345685603097,438.05984976515174 458.58414822723716,434.01107486430556 535.0148395984434,449.3749454310164 611.4455309696496,441.48444806598127 687.8762223408557,435.0061016473919 764.3069137120619,450.0123673118651 800,444 800,600" fill="#28162e"/><rect x="0" y="432" width="800" height="168.00000000000003" fill="url(#waterG)"/><rect x="0" y="432" width="800" height="2" fill="#fff" opacity="0.28"/><line x1="611.8110306560993" y1="564" x2="612.8921602275223" y2="528.0145564326085" stroke="#0c1018" stroke-width="2.2" opacity="0.6859464125940576"/><line x1="701.7630901187658" y1="564" x2="704.0781489927322" y2="525.2097491002642" stroke="#0c1018" stroke-width="2.2" opacity="0.7269037913996726"/><line x1="270.0110625475645" y1="564" x2="267.4982825778425" y2="526.1213696710765" stroke="#0c1018" stroke-width="2.2" opacity="0.7251986175309867"/><line x1="419.9572551995516" y1="564" x2="416.12263063155115" y2="501.9045996083878" stroke="#0c1018" stroke-width="2.2" opacity="0.662296351720579"/><line x1="30.390709079802036" y1="564" x2="27.054339023306966" y2="539.5850713616237" stroke="#0c1018" stroke-width="2.2" opacity="0.5211446955567226"/><line x1="236.96375861763954" y1="564" x2="235.59472054988146" y2="492.1947377836332" stroke="#0c1018" stroke-width="2.2" opacity="0.7633691183058545"/><line x1="727.848513610661" y1="564" x2="725.7149136979133" y2="493.52649354794994" stroke="#0c1018" stroke-width="2.2" opacity="0.7787728032330051"/><line x1="689.2742140218616" y1="564" x2="687.5410628598183" y2="518.8145117731765" stroke="#0c1018" stroke-width="2.2" opacity="0.7634715203661472"/><line x1="424.21861197799444" y1="564" x2="427.0901534296572" y2="498.562041006051" stroke="#0c1018" stroke-width="2.2" opacity="0.8919085222063586"/><line x1="107.8632153570652" y1="564" x2="107.56865545548499" y2="520.7587868967094" stroke="#0c1018" stroke-width="2.2" opacity="0.6169678341597319"/><line x1="284.9555253982544" y1="564" x2="283.47196146659553" y2="511.0339078656398" stroke="#0c1018" stroke-width="2.2" opacity="0.7114112500334159"/><line x1="330.36360032856464" y1="564" x2="333.45775501057506" y2="505.31613164721057" stroke="#0c1018" stroke-width="2.2" opacity="0.8033592474879697"/><line x1="615.178569033742" y1="564" x2="616.7486071549356" y2="492.60286186495796" stroke="#0c1018" stroke-width="2.2" opacity="0.7152819817187265"/><line x1="755.9455243870616" y1="564" x2="756.5773657858372" y2="532.068496750202" stroke="#0c1018" stroke-width="2.2" opacity="0.7631104902597144"/><line x1="632.7574633061886" y1="564" x2="634.1840279065073" y2="515.1128654861823" stroke="#0c1018" stroke-width="2.2" opacity="0.7997819871874526"/><line x1="425.36150235682726" y1="564" x2="424.47714034095407" y2="518.5674905823544" stroke="#0c1018" stroke-width="2.2" opacity="0.6552943744231016"/><line x1="578.8612462580204" y1="564" x2="581.4909040927887" y2="515.9220861522481" stroke="#0c1018" stroke-width="2.2" opacity="0.4641026665689424"/><line x1="622.7992482483387" y1="564" x2="619.2230346277356" y2="517.2505777142942" stroke="#0c1018" stroke-width="2.2" opacity="0.40939972570631655"/><line x1="519.5946400985122" y1="564" x2="519.756927261129" y2="501.07240061694756" stroke="#0c1018" stroke-width="2.2" opacity="0.5061822841875255"/><line x1="345.3993111848831" y1="564" x2="349.1556219626218" y2="497.9507331168279" stroke="#0c1018" stroke-width="2.2" opacity="0.8485288537107408"/><line x1="274.40627701580524" y1="564" x2="274.3690571244806" y2="490.8478782111779" stroke="#0c1018" stroke-width="2.2" opacity="0.6780631309142336"/><line x1="151.81916076689959" y1="564" x2="150.0113239660859" y2="496.42453154036775" stroke="#0c1018" stroke-width="2.2" opacity="0.7308198680169881"/><line x1="635.2607257664204" y1="564" x2="633.6623757909983" y2="517.58986478718" stroke="#0c1018" stroke-width="2.2" opacity="0.8054523020749912"/><line x1="230.60776758939028" y1="564" x2="230.17695756070316" y2="534.4486539140344" stroke="#0c1018" stroke-width="2.2" opacity="0.6687524652574212"/><line x1="338.50672226399183" y1="564" x2="339.3708598334342" y2="530.7784216715954" stroke="#0c1018" stroke-width="2.2" opacity="0.7718962924322114"/><line x1="300.2712734043598" y1="564" x2="302.25818856433034" y2="489.5760351298377" stroke="#0c1018" stroke-width="2.2" opacity="0.5744746761396528"/><line x1="701.1646062135696" y1="564" x2="701.5611098222435" y2="541.0066131129861" stroke="#0c1018" stroke-width="2.2" opacity="0.842873694235459"/><line x1="367.2499433159828" y1="564" x2="366.8235650938004" y2="513.4891682355665" stroke="#0c1018" stroke-width="2.2" opacity="0.874816489731893"/><line x1="451.8840827047825" y1="564" x2="448.0259205196053" y2="500.8310012649745" stroke="#0c1018" stroke-width="2.2" opacity="0.7380960042122752"/><line x1="405.76158203184605" y1="564" x2="409.3758949544281" y2="506.8098991182633" stroke="#0c1018" stroke-width="2.2" opacity="0.5172586452448741"/><line x1="287.6028945669532" y1="564" x2="289.2791053466499" y2="519.2726921108551" stroke="#0c1018" stroke-width="2.2" opacity="0.5102917682146654"/><line x1="584.2677293345332" y1="564" x2="583.6284079030156" y2="520.3114265566692" stroke="#0c1018" stroke-width="2.2" opacity="0.5116241033887491"/><line x1="605.219741538167" y1="564" x2="603.1022514402866" y2="509.27549421135336" stroke="#0c1018" stroke-width="2.2" opacity="0.5184176080860198"/><line x1="123.9679653197527" y1="564" x2="127.03789904899895" y2="539.157046626322" stroke="#0c1018" stroke-width="2.2" opacity="0.6095690605929122"/><line x1="688.6069634929299" y1="564" x2="690.6340602431446" y2="497.64529418060556" stroke="#0c1018" stroke-width="2.2" opacity="0.6960138656198979"/><line x1="766.4538381621242" y1="564" x2="765.3194161560386" y2="538.0205313288607" stroke="#0c1018" stroke-width="2.2" opacity="0.8985829303041101"/><line x1="444.4541111588478" y1="564" x2="447.3069414794445" y2="501.1041567688808" stroke="#0c1018" stroke-width="2.2" opacity="0.5441971401218325"/><line x1="445.35505026578903" y1="564" x2="443.07158213853836" y2="491.2604113034904" stroke="#0c1018" stroke-width="2.2" opacity="0.5871105304453522"/><line x1="611.6057859733701" y1="564" x2="615.3979525454342" y2="505.192807469517" stroke="#0c1018" stroke-width="2.2" opacity="0.882719735824503"/><line x1="268.28114930540323" y1="564" x2="265.03299427218735" y2="536.9997577089816" stroke="#0c1018" stroke-width="2.2" opacity="0.479754076898098"/><line x1="592.9368279874325" y1="564" x2="595.8788998294622" y2="503.44961499096826" stroke="#0c1018" stroke-width="2.2" opacity="0.497609470365569"/><line x1="710.9786948189139" y1="564" x2="711.8759343344718" y2="488.9980867835693" stroke="#0c1018" stroke-width="2.2" opacity="0.7428621386410669"/><line x1="156.54033310711384" y1="564" x2="158.7772307060659" y2="512.9734968221746" stroke="#0c1018" stroke-width="2.2" opacity="0.5761788263684139"/><line x1="305.36061357706785" y1="564" x2="308.41174876876175" y2="524.5910237170756" stroke="#0c1018" stroke-width="2.2" opacity="0.7581487328046933"/><line x1="31.6351730376482" y1="564" x2="29.303237127140164" y2="528.5377619909123" stroke="#0c1018" stroke-width="2.2" opacity="0.41707204745616766"/><line x1="502.31481697410345" y1="564" x2="504.0208869725466" y2="535.149151371792" stroke="#0c1018" stroke-width="2.2" opacity="0.716926479456015"/><line x1="171.36998400092125" y1="564" x2="174.69664802588522" y2="534.4648086493835" stroke="#0c1018" stroke-width="2.2" opacity="0.4131165442289785"/><line x1="398.9960387349129" y1="564" x2="396.5420201215893" y2="519.3895357991569" stroke="#0c1018" stroke-width="2.2" opacity="0.8690132680116222"/><line x1="421.332317776978" y1="564" x2="419.49100079387426" y2="523.5774289206602" stroke="#0c1018" stroke-width="2.2" opacity="0.8048552832100541"/><line x1="735.2788306772709" y1="564" x2="739.2041623592377" y2="500.3609793349169" stroke="#0c1018" stroke-width="2.2" opacity="0.7717801610473544"/><line x1="355.5533055216074" y1="564" x2="355.8117324281484" y2="489.88437715079635" stroke="#0c1018" stroke-width="2.2" opacity="0.5937001064652577"/><line x1="132.69090354442596" y1="564" x2="130.30411018431187" y2="501.1439543804154" stroke="#0c1018" stroke-width="2.2" opacity="0.6303571931552142"/><line x1="419.4267600774765" y1="564" x2="417.2633349392563" y2="502.2786404909566" stroke="#0c1018" stroke-width="2.2" opacity="0.4352257088525221"/><line x1="552.0740389823914" y1="564" x2="550.944749340415" y2="534.3450822695158" stroke="#0c1018" stroke-width="2.2" opacity="0.4172397835412994"/><line x1="792.0119615271688" y1="564" x2="790.9856921359897" y2="517.5796823338605" stroke="#0c1018" stroke-width="2.2" opacity="0.4256009779404849"/><line x1="176.1137906461954" y1="564" x2="174.53841484338045" y2="502.37800939474255" stroke="#0c1018" stroke-width="2.2" opacity="0.6026787800714374"/><line x1="414.0935309231281" y1="564" x2="415.20254438742995" y2="529.885808491148" stroke="#0c1018" stroke-width="2.2" opacity="0.4040757200913504"/><line x1="336.97539549320936" y1="564" x2="335.17116931825876" y2="528.8736486472189" stroke="#0c1018" stroke-width="2.2" opacity="0.5770823372062296"/><line x1="38.820949755609035" y1="564" x2="41.540031565353274" y2="541.7944818027318" stroke="#0c1018" stroke-width="2.2" opacity="0.5061297948472202"/><line x1="309.9244602024555" y1="564" x2="308.214798046276" y2="515.2008103169501" stroke="#0c1018" stroke-width="2.2" opacity="0.8758556748274714"/><line x1="345.6336734816432" y1="564" x2="344.3729936834425" y2="511.69129839818925" stroke="#0c1018" stroke-width="2.2" opacity="0.5897350864019245"/><line x1="752.7159674093127" y1="564" x2="749.3833365738392" y2="508.0790504645556" stroke="#0c1018" stroke-width="2.2" opacity="0.7179399560904131"/><line x1="180.05390092730522" y1="564" x2="177.06330821849406" y2="517.2404562016018" stroke="#0c1018" stroke-width="2.2" opacity="0.8843979527940974"/><line x1="230.58203235268593" y1="564" x2="230.81233175471425" y2="490.1928164353594" stroke="#0c1018" stroke-width="2.2" opacity="0.5997271431609988"/><line x1="261.834355071187" y1="564" x2="258.518224356696" y2="535.5111909615807" stroke="#0c1018" stroke-width="2.2" opacity="0.7034712992375717"/><line x1="161.39823868870735" y1="564" x2="162.34963959269226" y2="504.4352449798025" stroke="#0c1018" stroke-width="2.2" opacity="0.5854081911733374"/><line x1="569.1132565960288" y1="564" x2="568.6368545088917" y2="510.37776833213866" stroke="#0c1018" stroke-width="2.2" opacity="0.6453268374083564"/><line x1="763.7772580608726" y1="564" x2="761.655005775392" y2="493.2491919314489" stroke="#0c1018" stroke-width="2.2" opacity="0.5764820109819994"/><line x1="218.5702882707119" y1="564" x2="218.7929994352162" y2="516.3255561525002" stroke="#0c1018" stroke-width="2.2" opacity="0.5562659851042554"/><line x1="274.77901466190815" y1="564" x2="275.48019688390195" y2="505.08328305603936" stroke="#0c1018" stroke-width="2.2" opacity="0.8618443726794794"/>
<rect width="800" height="600" fill="url(#vig)"/></svg>